<svg xmlns="http://www.w3.org/2000/svg" width="420" height="170" viewBox="0 0 420 170" role="img" aria-label="superwhys&apos;s most used languages">
  <defs>
    <linearGradient id="border" x1="0" y1="0" x2="1" y2="1">
      <stop offset="0%" stop-color="#70a5fd" />
      <stop offset="100%" stop-color="#38bdf8" />
    </linearGradient>
  </defs>
  <rect x="1" y="1" width="418" height="168" rx="10" fill="#1a1b27" stroke="url(#border)" stroke-opacity=".45" />
  <style>
    text { font-family: -apple-system, BlinkMacSystemFont, 'Segoe UI', Helvetica, Arial, sans-serif; }
    .title { fill: #70a5fd; font-size: 18px; font-weight: 700; }
    .label { fill: #a9b1d6; font-size: 13px; }
    .value { fill: #f8fafc; font-size: 20px; font-weight: 700; }
  </style>
  <text x="24" y="36" class="title">Most used languages</text>
  <clipPath id="bar"><rect x="24" y="54" width="372" height="8" rx="4" /></clipPath>
  <g clip-path="url(#bar)"><rect x="24" y="54" width="145.25169564754884" height="8" fill="#00ADD8" />
  <rect x="169.25169564754884" y="54" width="141.1860317378627" height="8" fill="#41B883" />
  <rect x="310.43772738541156" y="54" width="46.220570540799045" height="8" fill="#3178C6" />
  <rect x="356.6582979262106" y="54" width="20.301311417180187" height="8" fill="#563D7C" />
  <rect x="376.95960934339075" y="54" width="19.04039065660923" height="8" fill="#E34C26" /></g>
  <circle cx="28" cy="87" r="5" fill="#00ADD8" />
  <text x="40" y="91" class="label">Go  39.0%</text>
  <circle cx="224" cy="87" r="5" fill="#41B883" />
  <text x="236" y="91" class="label">Vue  38.0%</text>
  <circle cx="28" cy="117" r="5" fill="#3178C6" />
  <text x="40" y="121" class="label">TypeScript  12.4%</text>
  <circle cx="224" cy="117" r="5" fill="#563D7C" />
  <text x="236" y="121" class="label">CSS  5.5%</text>
  <circle cx="28" cy="147" r="5" fill="#E34C26" />
  <text x="40" y="151" class="label">HTML  5.1%</text>
</svg>