<svg xmlns="http://www.w3.org/2000/svg" width="420" height="170" viewBox="0 0 420 170" role="img" aria-label="superwhys&apos;s most used languages">
  <defs>
    <linearGradient id="border" x1="0" y1="0" x2="1" y2="1">
      <stop offset="0%" stop-color="#70a5fd" />
      <stop offset="100%" stop-color="#38bdf8" />
    </linearGradient>
  </defs>
  <rect x="1" y="1" width="418" height="168" rx="10" fill="#1a1b27" stroke="url(#border)" stroke-opacity=".45" />
  <style>
    text { font-family: -apple-system, BlinkMacSystemFont, 'Segoe UI', Helvetica, Arial, sans-serif; }
    .title { fill: #70a5fd; font-size: 18px; font-weight: 700; }
    .label { fill: #a9b1d6; font-size: 13px; }
    .value { fill: #f8fafc; font-size: 20px; font-weight: 700; }
  </style>
  <text x="24" y="36" class="title">Most used languages</text>
  <clipPath id="bar"><rect x="24" y="54" width="372" height="8" rx="4" /></clipPath>
  <g clip-path="url(#bar)"><rect x="24" y="54" width="155.055094197082" height="8" fill="#41B883" />
  <rect x="179.055094197082" y="54" width="127.75855004620479" height="8" fill="#00ADD8" />
  <rect x="306.81364424328683" y="54" width="50.26598153157103" height="8" fill="#3178C6" />
  <rect x="357.07962577485785" y="54" width="22.300879712383562" height="8" fill="#E34C26" />
  <rect x="379.3805054872414" y="54" width="16.619494512758596" height="8" fill="#563D7C" /></g>
  <circle cx="28" cy="87" r="5" fill="#41B883" />
  <text x="40" y="91" class="label">Vue  41.7%</text>
  <circle cx="224" cy="87" r="5" fill="#00ADD8" />
  <text x="236" y="91" class="label">Go  34.3%</text>
  <circle cx="28" cy="117" r="5" fill="#3178C6" />
  <text x="40" y="121" class="label">TypeScript  13.5%</text>
  <circle cx="224" cy="117" r="5" fill="#E34C26" />
  <text x="236" y="121" class="label">HTML  6.0%</text>
  <circle cx="28" cy="147" r="5" fill="#563D7C" />
  <text x="40" y="151" class="label">CSS  4.5%</text>
</svg>